<svg width="318.6534057617187px" height="96.36363220214844px" xmlns="http://www.w3.org/2000/svg" viewBox="90.67329711914064 26.81818389892578 318.6534057617187 96.36363220214844" style="background: rgb(0, 0, 0);" preserveAspectRatio="xMidYMid"><defs><filter id="editing-vr"><feFlood flood-color="rgba(100%,0%,0%,0)" flood-opacity="0.7" result="c1"></feFlood><feFlood flood-color="rgba(0%,0%,100%,0)" flood-opacity="0.7" result="c3"></feFlood><feComposite operator="in" in="c1" in2="SourceAlpha" result="text-c1"></feComposite><feComposite operator="in" in="c3" in2="SourceAlpha" result="text-c3"></feComposite><feOffset in="text-c1" dx="5" dy="-1" result="text1"></feOffset><feOffset in="text-c3" dx="-5" dy="1" result="text3"></feOffset><feBlend in="SourceGraphic" in2="text1" mode="multiply" result="text4"></feBlend><feBlend in="text4" in2="text3" mode="multiply"></feBlend></filter></defs><g filter="url(#editing-vr)"><g transform="translate(141.19502806663513, 93.30500030517578)"><path d="M18.38 0.64L15.73-8.38L6.76-8.58L4.70 0.64L0.49 0L8.58-31.46L12.45-31.75L22.64 0L18.38 0.64ZM10.63-25.87L7.45-11.56L14.85-11.37L10.63-25.87ZM26.46-12.94L26.31-22.98L29.84-23.37L30.28-18.72L30.58-18.77L30.58-18.77Q33.17-23.67 37.39-23.67L37.39-23.67L37.39-23.67Q39.35-23.67 41.41-22.44L41.41-22.44L39.69-18.67L39.69-18.67Q37.93-19.80 36.28-19.80L36.28-19.80L36.28-19.80Q34.64-19.80 33.37-18.35L33.37-18.35L33.37-18.35Q32.09-16.91 31.38-14.43L31.38-14.43L31.38-14.43Q30.67-11.96 30.67-8.62L30.67-8.62L30.67-8.62Q30.67-5.29 30.92 0L30.92 0L26.36 0.20L26.36 0.20Q26.46-7.74 26.46-12.94L26.46-12.94ZM50.13 0.39L50.13 0.39Q46.94 0.39 44.91-1.49L44.91-1.49L44.91-1.49Q42.88-3.38 42.88-6.57L42.88-6.57L42.88-6.57Q42.88-9.75 45.18-11.76L45.18-11.76L45.18-11.76Q47.48-13.77 50.62-13.77L50.62-13.77L50.62-13.77Q53.75-13.77 55.96-11.76L55.96-11.76L55.96-13.62L55.96-13.62Q55.96-16.66 54.76-18.35L54.76-18.35L54.76-18.35Q53.56-20.04 51.79-20.04L51.79-20.04L51.79-20.04Q50.03-20.04 48.73-19.23L48.73-19.23L48.73-19.23Q47.43-18.42 46.01-16.76L46.01-16.76L43.81-19.26L43.81-19.26Q47.14-23.57 52.19-23.57L52.19-23.57L52.19-23.57Q60.12-23.57 60.12-14.60L60.12-14.60L60.12-14.60Q60.12-5.63 60.17 0.05L60.17 0.05L56.69 0.05L56.55-2.11L56.40-2.21L56.40-2.21Q55.71-1.23 53.88-0.42L53.88-0.42L53.88-0.42Q52.04 0.39 50.13 0.39L50.13 0.39ZM56.01-6.86L56.01-6.86L56.01-6.86Q55.96-8.62 54.54-9.60L54.54-9.60L54.54-9.60Q53.12-10.58 51.11-10.58L51.11-10.58L51.11-10.58Q49.10-10.58 47.97-9.46L47.97-9.46L47.97-9.46Q46.84-8.33 46.84-6.76L46.84-6.76L46.84-6.76Q46.84-5.19 48.00-4.04L48.00-4.04L48.00-4.04Q49.15-2.89 51.16-2.89L51.16-2.89L51.16-2.89Q53.16-2.89 54.56-3.90L54.56-3.90L54.56-3.90Q55.96-4.90 56.01-6.86ZM69.73-0.34L65.32 0.24L65.51-19.94L62.28-19.85L62.43-21.32L65.91-23.62L65.91-23.62Q65.91-28.81 67.91-32.39L67.91-32.39L67.91-32.39Q69.92-35.97 73.84-35.97L73.84-35.97L73.84-35.97Q76.29-35.97 78.33-35.57L78.33-35.57L78.33-35.57Q80.36-35.18 81.19-34.79L81.19-34.79L82.03-34.35L80.90-30.28L80.90-30.28Q78.01-32.05 74.92-32.05L74.92-32.05L74.92-32.05Q69.78-32.05 69.78-23.67L69.78-23.67L77.32-23.96L76.59-19.80L69.63-19.94L69.73-0.34ZM108.09 0.64L105.45-8.38L96.48-8.58L94.42 0.64L90.21 0L98.29-31.46L102.17-31.75L112.36 0L108.09 0.64ZM100.35-25.87L97.17-11.56L104.57-11.37L100.35-25.87ZM143.72 0.64L141.07-8.38L132.10-8.58L130.05 0.64L125.83 0L133.92-31.46L137.79-31.75L147.98 0L143.72 0.64ZM135.98-25.87L132.79-11.56L140.19-11.37L135.98-25.87ZM152.29-32.19L148.91-31.70L148.76-35.33L157.00-35.72L157.00-35.72Q156.56-16.76 156.56-13.52L156.56-13.52L156.46-0.05L152.54 0.24L152.54-13.62L152.54-13.62Q152.54-20.58 152.29-32.19L152.29-32.19ZM168.81 0.39L168.81 0.39Q165.62 0.39 163.59-1.49L163.59-1.49L163.59-1.49Q161.55-3.38 161.55-6.57L161.55-6.57L161.55-6.57Q161.55-9.75 163.86-11.76L163.86-11.76L163.86-11.76Q166.16-13.77 169.30-13.77L169.30-13.77L169.30-13.77Q172.43-13.77 174.64-11.76L174.64-11.76L174.64-13.62L174.64-13.62Q174.64-16.66 173.44-18.35L173.44-18.35L173.44-18.35Q172.24-20.04 170.47-20.04L170.47-20.04L170.47-20.04Q168.71-20.04 167.41-19.23L167.41-19.23L167.41-19.23Q166.11-18.42 164.69-16.76L164.69-16.76L162.48-19.26L162.48-19.26Q165.82-23.57 170.86-23.57L170.86-23.57L170.86-23.57Q178.80-23.57 178.80-14.60L178.80-14.60L178.80-14.60Q178.80-5.63 178.85 0.05L178.85 0.05L175.37 0.05L175.22-2.11L175.08-2.21L175.08-2.21Q174.39-1.23 172.55-0.42L172.55-0.42L172.55-0.42Q170.72 0.39 168.81 0.39L168.81 0.39ZM174.69-6.86L174.69-6.86L174.69-6.86Q174.64-8.62 173.22-9.60L173.22-9.60L173.22-9.60Q171.79-10.58 169.79-10.58L169.79-10.58L169.79-10.58Q167.78-10.58 166.65-9.46L166.65-9.46L166.65-9.46Q165.52-8.33 165.52-6.76L165.52-6.76L165.52-6.76Q165.52-5.19 166.67-4.04L166.67-4.04L166.67-4.04Q167.83-2.89 169.83-2.89L169.83-2.89L169.83-2.89Q171.84-2.89 173.24-3.90L173.24-3.90L173.24-3.90Q174.64-4.90 174.69-6.86ZM202.52-0.05L198.35 0.24L198.55-9.65L198.55-9.65Q198.55-19.75 195.71-19.75L195.71-19.75L195.71-19.75Q193.70-19.75 191.39-17.62L191.39-17.62L191.39-17.62Q189.09-15.48 188.26-12.30L188.26-12.30L188.26-12.30Q187.72-10.24 187.72-4.90L187.72-4.90L187.92-0.05L183.55 0.24L183.55 0.24Q183.65-11.76 183.65-14.55L183.65-14.55L183.36-22.93L186.79-23.23L187.92-18.38L188.11-18.38L188.11-18.38Q188.31-18.57 188.63-18.94L188.63-18.94L188.63-18.94Q188.94-19.31 189.95-20.19L189.95-20.19L189.95-20.19Q190.95-21.07 191.93-21.76L191.93-21.76L191.93-21.76Q194.63-23.57 196.91-23.57L196.91-23.57L196.91-23.57Q199.19-23.57 200.36-22.20L200.36-22.20L200.36-22.20Q201.54-20.82 202.13-18.28L202.13-18.28L202.37-18.18L202.37-18.18Q206.68-23.57 212.12-23.57L212.12-23.57L212.12-23.57Q214.52-23.57 215.75-21.36L215.75-21.36L215.75-21.36Q216.97-19.16 216.97-15.39L216.97-15.39L216.97-10.49L216.97-10.49Q216.97-2.40 217.12 0.10L217.12 0.10L212.86 0.39L212.86 0.39Q213.05-9.02 213.05-13.52L213.05-13.52L213.05-13.52Q213.05-19.36 210.46-19.36L210.46-19.36L210.46-19.36Q207.86-19.36 205.24-16.37L205.24-16.37L205.24-16.37Q202.62-13.38 202.62-10.58L202.62-10.58L202.52-0.05Z" fill="#ffffff"></path></g></g><style>text {
  font-size: 64px;
  font-family: Arial Black;
  dominant-baseline: central;
  text-anchor: middle;
}</style></svg>