<svg width="731.3238037109375px" height="208.72726440429688px" xmlns="http://www.w3.org/2000/svg" viewBox="-115.66190185546873 -29.363632202148438 731.3238037109375 208.72726440429688" style="background: rgba(5, 17, 3, 0);" preserveAspectRatio="xMidYMid"><defs><linearGradient id="editing-glowing-gradient" x1="0" x2="1" y1="0.5000000000000001" y2="0.4999999999999999"><stop offset="0" stop-color="#ffffff"></stop><stop offset="1" stop-color="#ffffff"></stop></linearGradient><filter id="editing-glowing" x="-100%" y="-100%" width="300%" height="300%"><feGaussianBlur in="SourceGraphic" result="blur" stdDeviation="1"></feGaussianBlur><feMerge><feMergeNode in="blur"></feMergeNode><feMergeNode in="SourceGraphic"></feMergeNode></feMerge></filter></defs><g filter="url(#editing-glowing)"><g transform="translate(-11.804975152015686, 112.2649974822998)"><path d="M2.94-3.21L2.94-3.21L2.94-3.21Q3.52-4.35 4.13-5.78L4.13-5.78L4.13-5.78Q4.75-7.21 5.27-8.88L5.27-8.88L6.46-11.78L6.46-11.78Q5.67-12.96 4.86-14.35L4.86-14.35L4.86-14.35Q4.04-15.73 3.38-17.18L3.38-17.18L3.38-17.18Q2.72-18.63 2.31-20.08L2.31-20.08L2.31-20.08Q1.89-21.53 1.89-22.90L1.89-22.90L1.89-22.90Q1.89-22.98 2.57-23.05L2.57-23.05L2.57-23.05Q3.25-23.12 4.28-23.16L4.28-23.16L4.28-23.16Q5.32-23.20 6.53-23.23L6.53-23.23L6.53-23.23Q7.73-23.25 8.77-23.27L8.77-23.27L8.77-23.27Q9.80-23.29 10.48-23.31L10.48-23.31L10.48-23.31Q11.16-23.33 11.16-23.33L11.16-23.33L11.16-23.33Q12.17-25.97 13.14-28.34L13.14-28.34L13.14-28.34Q14.11-30.72 15.07-33.13L15.07-33.13L15.07-33.13Q16.04-35.55 17.01-38.08L17.01-38.08L17.01-38.08Q17.97-40.61 18.94-43.51L18.94-43.51L18.94-43.51Q20.79-48.96 22.54-53.09L22.54-53.09L22.54-53.09Q24.30-57.22 25.84-60.78L25.84-60.78L25.84-60.78Q26.02-61.22 26.43-61.59L26.43-61.59L26.43-61.59Q26.85-61.96 27.33-62.23L27.33-62.23L27.33-62.23Q27.82-62.49 28.28-62.67L28.28-62.67L28.28-62.67Q28.74-62.84 29.00-62.93L29.00-62.93L29.00-62.93Q29.18-62.97 30.34-63.33L30.34-63.33L30.34-63.33Q31.51-63.68 33.00-64.07L33.00-64.07L33.00-64.07Q34.50-64.47 35.97-64.78L35.97-64.78L35.97-64.78Q37.44-65.08 38.32-65.08L38.32-65.08L39.11-65.08L39.11-65.08Q39.81-65.08 40.45-64.75L40.45-64.75L40.45-64.75Q41.09-64.42 41.31-63.46L41.31-63.46L41.31-63.46Q43.42-58.05 45.81-51.66L45.81-51.66L45.81-51.66Q48.21-45.26 50.49-37.57L50.49-37.57L50.49-37.57Q51.72-33.44 52.91-29.75L52.91-29.75L52.91-29.75Q54.10-26.06 55.28-22.54L55.28-22.54L55.28-22.54Q56.47-19.03 57.68-15.51L57.68-15.51L57.68-15.51Q58.89-12.00 60.16-8.26L60.16-8.26L60.16-8.26Q60.56-6.68 60.97-5.76L60.97-5.76L60.97-5.76Q61.39-4.83 61.74-4.31L61.74-4.31L61.74-4.31Q62.09-3.78 62.31-3.54L62.31-3.54L62.31-3.54Q62.53-3.30 62.53-3.03L62.53-3.03L62.53-3.03Q62.53-2.77 61.70-2.50L61.70-2.50L52.25 0.57L52.25 0.57Q51.20 0.97 50.10 1.36L50.10 1.36L50.10 1.36Q49.00 1.76 48.03 2.07L48.03 2.07L48.03 2.07Q47.07 2.37 46.34 2.57L46.34 2.57L46.34 2.57Q45.62 2.77 45.31 2.77L45.31 2.77L45.04 2.77L45.04 2.77Q44.43 2.77 44.17 2.40L44.17 2.40L44.17 2.40Q43.90 2.02 43.81 1.67L43.81 1.67L43.81 1.67Q43.37 0.22 42.93-0.94L42.93-0.94L42.93-0.94Q42.50-2.11 42.08-3.27L42.08-3.27L42.08-3.27Q41.66-4.44 41.24-5.76L41.24-5.76L41.24-5.76Q40.83-7.08 40.43-8.88L40.43-8.88L40.43-8.88Q40.34-9.10 39.95-9.25L39.95-9.25L39.95-9.25Q39.55-9.40 39.00-9.49L39.00-9.49L39.00-9.49Q38.45-9.58 37.84-9.60L37.84-9.60L37.84-9.60Q37.22-9.62 36.69-9.62L36.69-9.62L36.69-9.62Q35.02-9.62 33.99-9.60L33.99-9.60L33.99-9.60Q32.96-9.58 32.17-9.56L32.17-9.56L32.17-9.56Q31.38-9.54 30.65-9.51L30.65-9.51L30.65-9.51Q29.93-9.49 28.87-9.49L28.87-9.49L28.87-9.49Q27.60-9.49 26.26-9.51L26.26-9.51L26.26-9.51Q24.92-9.54 23.82-9.58L23.82-9.58L21.31-9.67L21.31-9.67Q20.17-6.50 19.03-3.74L19.03-3.74L19.03-3.74Q17.89-0.97 16.57 1.98L16.57 1.98L16.57 1.98Q16.48 2.33 16.15 2.55L16.15 2.55L16.15 2.55Q15.82 2.77 15.47 2.77L15.47 2.77L15.47 2.77Q15.21 2.77 15.16 2.72L15.16 2.72L15.16 2.72Q10.90 1.19 8.00-0.31L8.00-0.31L8.00-0.31Q5.10-1.80 2.94-3.21ZM32.56-42.71L32.56-42.71L32.56-42.71Q31.51-38.80 30.48-35.62L30.48-35.62L30.48-35.62Q29.44-32.43 28.59-29.97L28.59-29.97L28.59-29.97Q27.73-27.51 27.11-25.82L27.11-25.82L27.11-25.82Q26.50-24.13 26.24-23.20L26.24-23.20L26.24-22.81L26.24-22.81Q26.24-22.54 26.19-22.46L26.19-22.46L36.74-22.46L36.74-22.46Q36.25-24.61 35.71-26.81L35.71-26.81L35.71-26.81Q35.16-29.00 34.63-31.42L34.63-31.42L34.63-31.42Q34.10-33.84 33.57-36.61L33.57-36.61L33.57-36.61Q33.05-39.38 32.56-42.71ZM104.85-49.39L102.13-35.77L102.13-35.77Q101.21-35.86 100.06-35.97L100.06-35.97L100.06-35.97Q98.92-36.08 97.65-36.08L97.65-36.08L97.65-36.08Q95.71-36.08 93.71-35.75L93.71-35.75L93.71-35.75Q91.71-35.42 90-34.45L90-34.45L90-34.45Q88.29-33.49 87.06-31.79L87.06-31.79L87.06-31.79Q85.83-30.10 85.47-27.42L85.47-27.42L85.47-27.42Q85.17-24.17 84.97-22.08L84.97-22.08L84.97-22.08Q84.77-20.00 84.68-18.65L84.68-18.65L84.68-18.65Q84.59-17.31 84.53-16.50L84.53-16.50L84.53-16.50Q84.46-15.69 84.42-14.99L84.42-14.99L84.42-14.99Q84.42-14.81 84.35-14.02L84.35-14.02L84.35-14.02Q84.29-13.23 84.16-12.17L84.16-12.17L84.16-12.17Q84.02-11.12 83.91-9.89L83.91-9.89L83.91-9.89Q83.80-8.66 83.67-7.60L83.67-7.60L83.67-7.60Q83.54-6.55 83.47-5.76L83.47-5.76L83.47-5.76Q83.41-4.97 83.41-4.79L83.41-4.79L83.41-4.79Q83.41-4.44 83.43-4.20L83.43-4.20L83.43-4.20Q83.45-3.96 83.45-3.74L83.45-3.74L83.45-3.74Q83.45-3.38 83.12-3.14L83.12-3.14L83.12-3.14Q82.79-2.90 81.65-2.59L81.65-2.59L70.00 1.58L70.00 1.58Q69.52 1.76 68.73 2.02L68.73 2.02L68.73 2.02Q67.94 2.29 67.19 2.29L67.19 2.29L67.19 2.29Q66.58 2.29 66.12 1.98L66.12 1.98L66.12 1.98Q65.65 1.67 65.65 0.92L65.65 0.92L69.43-42.63L69.43-42.63Q69.57-44.08 69.76-44.63L69.76-44.63L69.76-44.63Q69.96-45.18 70.75-45.35L70.75-45.35L70.75-45.35Q74.75-46.14 79.01-46.96L79.01-46.96L79.01-46.96Q83.28-47.77 87.28-49.04L87.28-49.04L87.28-49.04Q87.63-49.04 87.69-48.93L87.69-48.93L87.69-48.93Q87.76-48.82 87.76-48.60L87.76-48.60L87.76-48.60Q87.76-48.52 87.74-48.34L87.74-48.34L87.74-48.34Q87.71-48.16 87.60-47.55L87.60-47.55L87.60-47.55Q87.50-46.93 87.30-45.68L87.30-45.68L87.30-45.68Q87.10-44.43 86.75-42.19L86.75-42.19L86.75-42.19Q88.77-43.77 91.21-45.09L91.21-45.09L91.21-45.09Q93.65-46.41 96.11-47.35L96.11-47.35L96.11-47.35Q98.57-48.30 100.85-48.85L100.85-48.85L100.85-48.85Q103.14-49.39 104.85-49.39L104.85-49.39ZM154.56-49.79L150.03-8.83L150.03-8.83Q149.99-8.66 149.99-8.50L149.99-8.50L149.99-8.50Q149.99-8.35 149.99-8.22L149.99-8.22L149.99-8.22Q149.99-7.12 150.34-6.39L150.34-6.39L150.34-6.39Q150.69-5.67 151.11-5.21L151.11-5.21L151.11-5.21Q151.52-4.75 151.88-4.46L151.88-4.46L151.88-4.46Q152.23-4.17 152.23-3.96L152.23-3.96L152.23-3.96Q152.23-3.34 150.91-2.81L150.91-2.81L139.09 2.24L139.09 2.24Q139.04 2.29 138.78 2.29L138.78 2.29L138.78 2.29Q138.43 2.29 138.08 1.67L138.08 1.67L138.08 1.67Q137.72 1.05 137.40 0.11L137.40 0.11L137.40 0.11Q137.07-0.83 136.78-1.91L136.78-1.91L136.78-1.91Q136.49-2.99 136.27-3.91L136.27-3.91L136.27-3.91Q133.51-0.70 130.30 0.79L130.30 0.79L130.30 0.79Q127.09 2.29 123.93 2.29L123.93 2.29L123.93 2.29Q120.23 2.29 116.72 0.66L116.72 0.66L116.72 0.66Q113.20-0.97 110.48-3.98L110.48-3.98L110.48-3.98Q107.75-6.99 106.11-11.25L106.11-11.25L106.11-11.25Q104.46-15.51 104.46-20.83L104.46-20.83L104.46-20.83Q104.46-27.11 106.28-32.30L106.28-32.30L106.28-32.30Q108.11-37.49 111.23-41.22L111.23-41.22L111.23-41.22Q114.35-44.96 118.50-47.00L118.50-47.00L118.50-47.00Q122.65-49.04 127.31-49.04L127.31-49.04L127.31-49.04Q130.61-49.04 133.55-47.70L133.55-47.70L133.55-47.70Q136.49-46.36 139.13-44.25L139.13-44.25L139.13-44.25Q139.39-45.57 139.44-46.36L139.44-46.36L139.44-46.36Q139.48-47.15 139.64-47.59L139.64-47.59L139.64-47.59Q139.79-48.03 140.23-48.19L140.23-48.19L140.23-48.19Q140.67-48.34 141.68-48.43L141.68-48.43L141.68-48.43Q144.84-48.87 147.99-49.24L147.99-49.24L147.99-49.24Q151.13-49.61 154.56-49.79L154.56-49.79ZM135.04-12.39L136.89-25.40L136.89-25.40Q137.33-27.91 137.48-30.12L137.48-30.12L137.48-30.12Q137.64-32.34 137.72-34.19L137.72-34.19L137.72-34.19Q137.02-34.72 136.21-35.29L136.21-35.29L136.21-35.29Q135.40-35.86 134.45-36.36L134.45-36.36L134.45-36.36Q133.51-36.87 132.47-37.18L132.47-37.18L132.47-37.18Q131.44-37.49 130.30-37.49L130.30-37.49L130.30-37.49Q127.92-37.49 126.32-35.95L126.32-35.95L126.32-35.95Q124.72-34.41 123.73-32.17L123.73-32.17L123.73-32.17Q122.74-29.93 122.32-27.42L122.32-27.42L122.32-27.42Q121.90-24.92 121.90-22.98L121.90-22.98L121.90-22.98Q121.90-16.04 123.73-12.81L123.73-12.81L123.73-12.81Q125.55-9.58 128.80-9.58L128.80-9.58L128.80-9.58Q130.12-9.58 131.75-10.33L131.75-10.33L131.75-10.33Q133.37-11.07 135.04-12.39L135.04-12.39ZM164.93 0.66L164.93 0.66L164.93 0.66Q164.97 0.18 165.12-1.43L165.12-1.43L165.12-1.43Q165.28-3.03 165.50-5.49L165.50-5.49L165.50-5.49Q165.72-7.95 166.00-11.14L166.00-11.14L166.00-11.14Q166.29-14.33 166.64-18.00L166.64-18.00L166.64-18.00Q166.99-21.67 167.37-25.66L167.37-25.66L167.37-25.66Q167.74-29.66 168.13-33.75L168.13-33.75L162.29-33.75L162.29-33.75Q159.92-33.75 158.86-33.95L158.86-33.95L158.86-33.95Q157.81-34.15 157.81-34.76L157.81-34.76L157.81-34.76Q157.81-34.94 158.25-35.71L158.25-35.71L158.25-35.71Q158.69-36.47 159.37-37.55L159.37-37.55L159.37-37.55Q160.05-38.63 160.84-39.86L160.84-39.86L160.84-39.86Q161.63-41.09 162.36-42.17L162.36-42.17L162.36-42.17Q163.08-43.24 163.61-44.03L163.61-44.03L163.61-44.03Q164.14-44.82 164.27-45L164.27-45L169.63-45L170.51-51.99L170.51-51.99Q171.12-57.52 172.73-61.30L172.73-61.30L172.73-61.30Q174.33-65.08 176.73-67.41L176.73-67.41L176.73-67.41Q179.12-69.74 182.20-70.75L182.20-70.75L182.20-70.75Q185.27-71.76 188.79-71.76L188.79-71.76L188.79-71.76Q192.30-71.76 196.11-70.91L196.11-70.91L196.11-70.91Q199.91-70.05 203.77-68.55L203.77-68.55L203.77-68.55Q204.61-68.20 205.03-67.96L205.03-67.96L205.03-67.96Q205.44-67.72 205.44-67.32L205.44-67.32L205.44-67.32Q205.44-66.97 205.14-66.40L205.14-66.40L205.14-66.40Q203.73-63.68 203.05-62.01L203.05-62.01L203.05-62.01Q202.37-60.34 201.97-59.37L201.97-59.37L201.97-59.37Q201.58-58.40 201.31-58.07L201.31-58.07L201.31-58.07Q201.05-57.74 200.52-57.74L200.52-57.74L200.52-57.74Q200.26-57.74 199.97-57.88L199.97-57.88L199.97-57.88Q199.69-58.01 199.29-58.18L199.29-58.18L199.29-58.18Q197.75-58.75 196.19-59.22L196.19-59.22L196.19-59.22Q194.63-59.68 193.23-59.68L193.23-59.68L193.23-59.68Q191.25-59.68 189.82-58.45L189.82-58.45L189.82-58.45Q188.39-57.22 187.56-53.79L187.56-53.79L187.56-53.79Q187.08-51.81 186.77-49.53L186.77-49.53L186.77-49.53Q186.46-47.24 186.24-45L186.24-45L197.71-45L197.71-45Q198.06-45 198.39-44.76L198.39-44.76L198.39-44.76Q198.72-44.52 198.72-43.95L198.72-43.95L198.72-43.95Q198.72-43.73 198.19-42.36L198.19-42.36L198.19-42.36Q197.67-41.00 196.70-38.80L196.70-38.80L195.12-35.24L195.12-35.24Q194.81-34.58 194.48-34.28L194.48-34.28L194.48-34.28Q194.15-33.97 193.14-33.88L193.14-33.88L185.54-33.88L185.54-33.88Q185.05-29.31 184.61-24.83L184.61-24.83L184.61-24.83Q184.17-20.35 183.78-16.41L183.78-16.41L183.78-16.41Q183.38-12.48 183.08-9.43L183.08-9.43L183.08-9.43Q182.77-6.37 182.59-4.70L182.59-4.70L182.59-4.70Q182.55-4.57 182.55-4.22L182.55-4.22L182.55-4.22Q182.55-4.04 182.57-3.91L182.57-3.91L182.57-3.91Q182.59-3.78 182.59-3.69L182.59-3.69L182.59-3.69Q182.59-3.30 182.31-3.05L182.31-3.05L182.31-3.05Q182.02-2.81 180.83-2.50L180.83-2.50L169.28 1.58L169.28 1.58Q168.79 1.76 168.00 2.02L168.00 2.02L168.00 2.02Q167.21 2.29 166.46 2.29L166.46 2.29L166.46 2.29Q165.72 2.29 165.32 1.93L165.32 1.93L165.32 1.93Q164.93 1.58 164.93 0.66ZM217.00-3.21L217.00-3.21L217.00-3.21Q217.57-4.35 218.19-5.78L218.19-5.78L218.19-5.78Q218.80-7.21 219.33-8.88L219.33-8.88L220.52-11.78L220.52-11.78Q219.73-12.96 218.91-14.35L218.91-14.35L218.91-14.35Q218.10-15.73 217.44-17.18L217.44-17.18L217.44-17.18Q216.78-18.63 216.36-20.08L216.36-20.08L216.36-20.08Q215.95-21.53 215.95-22.90L215.95-22.90L215.95-22.90Q215.95-22.98 216.63-23.05L216.63-23.05L216.63-23.05Q217.31-23.12 218.34-23.16L218.34-23.16L218.34-23.16Q219.38-23.20 220.58-23.23L220.58-23.23L220.58-23.23Q221.79-23.25 222.82-23.27L222.82-23.27L222.82-23.27Q223.86-23.29 224.54-23.31L224.54-23.31L224.54-23.31Q225.22-23.33 225.22-23.33L225.22-23.33L225.22-23.33Q226.23-25.97 227.20-28.34L227.20-28.34L227.20-28.34Q228.16-30.72 229.13-33.13L229.13-33.13L229.13-33.13Q230.10-35.55 231.06-38.08L231.06-38.08L231.06-38.08Q232.03-40.61 233.00-43.51L233.00-43.51L233.00-43.51Q234.84-48.96 236.60-53.09L236.60-53.09L236.60-53.09Q238.36-57.22 239.90-60.78L239.90-60.78L239.90-60.78Q240.07-61.22 240.49-61.59L240.49-61.59L240.49-61.59Q240.91-61.96 241.39-62.23L241.39-62.23L241.39-62.23Q241.88-62.49 242.34-62.67L242.34-62.67L242.34-62.67Q242.80-62.84 243.06-62.93L243.06-62.93L243.06-62.93Q243.24-62.97 244.40-63.33L244.40-63.33L244.40-63.33Q245.57-63.68 247.06-64.07L247.06-64.07L247.06-64.07Q248.55-64.47 250.03-64.78L250.03-64.78L250.03-64.78Q251.50-65.08 252.38-65.08L252.38-65.08L253.17-65.08L253.17-65.08Q253.87-65.08 254.51-64.75L254.51-64.75L254.51-64.75Q255.15-64.42 255.37-63.46L255.37-63.46L255.37-63.46Q257.48-58.05 259.87-51.66L259.87-51.66L259.87-51.66Q262.27-45.26 264.55-37.57L264.55-37.57L264.55-37.57Q265.78-33.44 266.97-29.75L266.97-29.75L266.97-29.75Q268.15-26.06 269.34-22.54L269.34-22.54L269.34-22.54Q270.53-19.03 271.74-15.51L271.74-15.51L271.74-15.51Q272.94-12.00 274.22-8.26L274.22-8.26L274.22-8.26Q274.61-6.68 275.03-5.76L275.03-5.76L275.03-5.76Q275.45-4.83 275.80-4.31L275.80-4.31L275.80-4.31Q276.15-3.78 276.37-3.54L276.37-3.54L276.37-3.54Q276.59-3.30 276.59-3.03L276.59-3.03L276.59-3.03Q276.59-2.77 275.76-2.50L275.76-2.50L266.31 0.57L266.31 0.57Q265.25 0.97 264.16 1.36L264.16 1.36L264.16 1.36Q263.06 1.76 262.09 2.07L262.09 2.07L262.09 2.07Q261.12 2.37 260.40 2.57L260.40 2.57L260.40 2.57Q259.67 2.77 259.37 2.77L259.37 2.77L259.10 2.77L259.10 2.77Q258.49 2.77 258.22 2.40L258.22 2.40L258.22 2.40Q257.96 2.02 257.87 1.67L257.87 1.67L257.87 1.67Q257.43 0.22 256.99-0.94L256.99-0.94L256.99-0.94Q256.55-2.11 256.14-3.27L256.14-3.27L256.14-3.27Q255.72-4.44 255.30-5.76L255.30-5.76L255.30-5.76Q254.88-7.08 254.49-8.88L254.49-8.88L254.49-8.88Q254.40-9.10 254.00-9.25L254.00-9.25L254.00-9.25Q253.61-9.40 253.06-9.49L253.06-9.49L253.06-9.49Q252.51-9.58 251.89-9.60L251.89-9.60L251.89-9.60Q251.28-9.62 250.75-9.62L250.75-9.62L250.75-9.62Q249.08-9.62 248.05-9.60L248.05-9.60L248.05-9.60Q247.02-9.58 246.23-9.56L246.23-9.56L246.23-9.56Q245.43-9.54 244.71-9.51L244.71-9.51L244.71-9.51Q243.98-9.49 242.93-9.49L242.93-9.49L242.93-9.49Q241.66-9.49 240.31-9.51L240.31-9.51L240.31-9.51Q238.97-9.54 237.88-9.58L237.88-9.58L235.37-9.67L235.37-9.67Q234.23-6.50 233.09-3.74L233.09-3.74L233.09-3.74Q231.94-0.97 230.63 1.98L230.63 1.98L230.63 1.98Q230.54 2.33 230.21 2.55L230.21 2.55L230.21 2.55Q229.88 2.77 229.53 2.77L229.53 2.77L229.53 2.77Q229.26 2.77 229.22 2.72L229.22 2.72L229.22 2.72Q224.96 1.19 222.06-0.31L222.06-0.31L222.06-0.31Q219.16-1.80 217.00-3.21ZM246.62-42.71L246.62-42.71L246.62-42.71Q245.57-38.80 244.53-35.62L244.53-35.62L244.53-35.62Q243.50-32.43 242.64-29.97L242.64-29.97L242.64-29.97Q241.79-27.51 241.17-25.82L241.17-25.82L241.17-25.82Q240.56-24.13 240.29-23.20L240.29-23.20L240.29-22.81L240.29-22.81Q240.29-22.54 240.25-22.46L240.25-22.46L250.80-22.46L250.80-22.46Q250.31-24.61 249.76-26.81L249.76-26.81L249.76-26.81Q249.21-29.00 248.69-31.42L248.69-31.42L248.69-31.42Q248.16-33.84 247.63-36.61L247.63-36.61L247.63-36.61Q247.10-39.38 246.62-42.71ZM297.25-3.21L297.25-3.21L297.25-3.21Q297.82-4.35 298.43-5.78L298.43-5.78L298.43-5.78Q299.05-7.21 299.58-8.88L299.58-8.88L300.76-11.78L300.76-11.78Q299.97-12.96 299.16-14.35L299.16-14.35L299.16-14.35Q298.34-15.73 297.69-17.18L297.69-17.18L297.69-17.18Q297.03-18.63 296.61-20.08L296.61-20.08L296.61-20.08Q296.19-21.53 296.19-22.90L296.19-22.90L296.19-22.90Q296.19-22.98 296.87-23.05L296.87-23.05L296.87-23.05Q297.55-23.12 298.59-23.16L298.59-23.16L298.59-23.16Q299.62-23.20 300.83-23.23L300.83-23.23L300.83-23.23Q302.04-23.25 303.07-23.27L303.07-23.27L303.07-23.27Q304.10-23.29 304.78-23.31L304.78-23.31L304.78-23.31Q305.46-23.33 305.46-23.33L305.46-23.33L305.46-23.33Q306.47-25.97 307.44-28.34L307.44-28.34L307.44-28.34Q308.41-30.72 309.38-33.13L309.38-33.13L309.38-33.13Q310.34-35.55 311.31-38.08L311.31-38.08L311.31-38.08Q312.28-40.61 313.24-43.51L313.24-43.51L313.24-43.51Q315.09-48.96 316.85-53.09L316.85-53.09L316.85-53.09Q318.60-57.22 320.14-60.78L320.14-60.78L320.14-60.78Q320.32-61.22 320.73-61.59L320.73-61.59L320.73-61.59Q321.15-61.96 321.64-62.23L321.64-62.23L321.64-62.23Q322.12-62.49 322.58-62.67L322.58-62.67L322.58-62.67Q323.04-62.84 323.31-62.93L323.31-62.93L323.31-62.93Q323.48-62.97 324.65-63.33L324.65-63.33L324.65-63.33Q325.81-63.68 327.30-64.07L327.30-64.07L327.30-64.07Q328.80-64.47 330.27-64.78L330.27-64.78L330.27-64.78Q331.74-65.08 332.62-65.08L332.62-65.08L333.41-65.08L333.41-65.08Q334.12-65.08 334.75-64.75L334.75-64.75L334.75-64.75Q335.39-64.42 335.61-63.46L335.61-63.46L335.61-63.46Q337.72-58.05 340.11-51.66L340.11-51.66L340.11-51.66Q342.51-45.26 344.79-37.57L344.79-37.57L344.79-37.57Q346.03-33.44 347.21-29.75L347.21-29.75L347.21-29.75Q348.40-26.06 349.58-22.54L349.58-22.54L349.58-22.54Q350.77-19.03 351.98-15.51L351.98-15.51L351.98-15.51Q353.19-12.00 354.46-8.26L354.46-8.26L354.46-8.26Q354.86-6.68 355.28-5.76L355.28-5.76L355.28-5.76Q355.69-4.83 356.04-4.31L356.04-4.31L356.04-4.31Q356.40-3.78 356.62-3.54L356.62-3.54L356.62-3.54Q356.84-3.30 356.84-3.03L356.84-3.03L356.84-3.03Q356.84-2.77 356.00-2.50L356.00-2.50L346.55 0.57L346.55 0.57Q345.50 0.97 344.40 1.36L344.40 1.36L344.40 1.36Q343.30 1.76 342.33 2.07L342.33 2.07L342.33 2.07Q341.37 2.37 340.64 2.57L340.64 2.57L340.64 2.57Q339.92 2.77 339.61 2.77L339.61 2.77L339.35 2.77L339.35 2.77Q338.73 2.77 338.47 2.40L338.47 2.40L338.47 2.40Q338.20 2.02 338.12 1.67L338.12 1.67L338.12 1.67Q337.68 0.22 337.24-0.94L337.24-0.94L337.24-0.94Q336.80-2.11 336.38-3.27L336.38-3.27L336.38-3.27Q335.96-4.44 335.54-5.76L335.54-5.76L335.54-5.76Q335.13-7.08 334.73-8.88L334.73-8.88L334.73-8.88Q334.64-9.10 334.25-9.25L334.25-9.25L334.25-9.25Q333.85-9.40 333.30-9.49L333.30-9.49L333.30-9.49Q332.75-9.58 332.14-9.60L332.14-9.60L332.14-9.60Q331.52-9.62 331.00-9.62L331.00-9.62L331.00-9.62Q329.33-9.62 328.29-9.60L328.29-9.60L328.29-9.60Q327.26-9.58 326.47-9.56L326.47-9.56L326.47-9.56Q325.68-9.54 324.95-9.51L324.95-9.51L324.95-9.51Q324.23-9.49 323.17-9.49L323.17-9.49L323.17-9.49Q321.90-9.49 320.56-9.51L320.56-9.51L320.56-9.51Q319.22-9.54 318.12-9.58L318.12-9.58L315.62-9.67L315.62-9.67Q314.47-6.50 313.33-3.74L313.33-3.74L313.33-3.74Q312.19-0.97 310.87 1.98L310.87 1.98L310.87 1.98Q310.78 2.33 310.45 2.55L310.45 2.55L310.45 2.55Q310.12 2.77 309.77 2.77L309.77 2.77L309.77 2.77Q309.51 2.77 309.46 2.72L309.46 2.72L309.46 2.72Q305.20 1.19 302.30-0.31L302.30-0.31L302.30-0.31Q299.40-1.80 297.25-3.21ZM326.87-42.71L326.87-42.71L326.87-42.71Q325.81-38.80 324.78-35.62L324.78-35.62L324.78-35.62Q323.75-32.43 322.89-29.97L322.89-29.97L322.89-29.97Q322.03-27.51 321.42-25.82L321.42-25.82L321.42-25.82Q320.80-24.13 320.54-23.20L320.54-23.20L320.54-22.81L320.54-22.81Q320.54-22.54 320.49-22.46L320.49-22.46L331.04-22.46L331.04-22.46Q330.56-24.61 330.01-26.81L330.01-26.81L330.01-26.81Q329.46-29.00 328.93-31.42L328.93-31.42L328.93-31.42Q328.40-33.84 327.88-36.61L327.88-36.61L327.88-36.61Q327.35-39.38 326.87-42.71ZM363.52-37.18L363.52-37.18L363.52-37.18Q364.04-43.20 364.37-49.09L364.37-49.09L364.37-49.09Q364.70-54.98 365.10-61.17L365.10-61.17L365.10-61.17Q365.19-62.62 365.38-63.17L365.38-63.17L365.38-63.17Q365.58-63.72 366.37-63.90L366.37-63.90L366.37-63.90Q370.46-64.64 374.57-65.41L374.57-65.41L374.57-65.41Q378.68-66.18 382.81-67.46L382.81-67.46L382.81-67.46Q382.94-67.50 383.20-67.50L383.20-67.50L383.20-67.50Q383.69-67.50 383.69-67.06L383.69-67.06L377.97-4.31L377.97-3.56L377.97-3.56Q377.97-3.16 377.67-2.92L377.67-2.92L377.67-2.92Q377.36-2.68 376.22-2.37L376.22-2.37L364.70 1.85L364.70 1.85Q364.22 2.07 363.43 2.31L363.43 2.31L363.43 2.31Q362.64 2.55 361.89 2.55L361.89 2.55L361.89 2.55Q361.27 2.55 360.81 2.24L360.81 2.24L360.81 2.24Q360.35 1.93 360.35 1.19L360.35 1.19L360.35 0.92L360.35 0.92Q360.70-3.52 361.03-7.76L361.03-7.76L361.03-7.76Q361.36-12.00 361.74-16.52L361.74-16.52L361.74-16.52Q362.11-21.05 362.55-26.10L362.55-26.10L362.55-26.10Q362.99-31.16 363.52-37.18ZM437.21-49.79L432.69-8.83L432.69-8.83Q432.64-8.66 432.64-8.50L432.64-8.50L432.64-8.50Q432.64-8.35 432.64-8.22L432.64-8.22L432.64-8.22Q432.64-7.12 432.99-6.39L432.99-6.39L432.99-6.39Q433.34-5.67 433.76-5.21L433.76-5.21L433.76-5.21Q434.18-4.75 434.53-4.46L434.53-4.46L434.53-4.46Q434.88-4.17 434.88-3.96L434.88-3.96L434.88-3.96Q434.88-3.34 433.56-2.81L433.56-2.81L421.74 2.24L421.74 2.24Q421.70 2.29 421.44 2.29L421.44 2.29L421.44 2.29Q421.08 2.29 420.73 1.67L420.73 1.67L420.73 1.67Q420.38 1.05 420.05 0.11L420.05 0.11L420.05 0.11Q419.72-0.83 419.44-1.91L419.44-1.91L419.44-1.91Q419.15-2.99 418.93-3.91L418.93-3.91L418.93-3.91Q416.16-0.70 412.95 0.79L412.95 0.79L412.95 0.79Q409.75 2.29 406.58 2.29L406.58 2.29L406.58 2.29Q402.89 2.29 399.38 0.66L399.38 0.66L399.38 0.66Q395.86-0.97 393.13-3.98L393.13-3.98L393.13-3.98Q390.41-6.99 388.76-11.25L388.76-11.25L388.76-11.25Q387.11-15.51 387.11-20.83L387.11-20.83L387.11-20.83Q387.11-27.11 388.94-32.30L388.94-32.30L388.94-32.30Q390.76-37.49 393.88-41.22L393.88-41.22L393.88-41.22Q397.00-44.96 401.15-47.00L401.15-47.00L401.15-47.00Q405.31-49.04 409.97-49.04L409.97-49.04L409.97-49.04Q413.26-49.04 416.21-47.70L416.21-47.70L416.21-47.70Q419.15-46.36 421.79-44.25L421.79-44.25L421.79-44.25Q422.05-45.57 422.09-46.36L422.09-46.36L422.09-46.36Q422.14-47.15 422.29-47.59L422.29-47.59L422.29-47.59Q422.45-48.03 422.89-48.19L422.89-48.19L422.89-48.19Q423.33-48.34 424.34-48.43L424.34-48.43L424.34-48.43Q427.50-48.87 430.64-49.24L430.64-49.24L430.64-49.24Q433.78-49.61 437.21-49.79L437.21-49.79ZM417.70-12.39L419.55-25.40L419.55-25.40Q419.99-27.91 420.14-30.12L420.14-30.12L420.14-30.12Q420.29-32.34 420.38-34.19L420.38-34.19L420.38-34.19Q419.68-34.72 418.86-35.29L418.86-35.29L418.86-35.29Q418.05-35.86 417.11-36.36L417.11-36.36L417.11-36.36Q416.16-36.87 415.13-37.18L415.13-37.18L415.13-37.18Q414.10-37.49 412.95-37.49L412.95-37.49L412.95-37.49Q410.58-37.49 408.98-35.95L408.98-35.95L408.98-35.95Q407.37-34.41 406.38-32.17L406.38-32.17L406.38-32.17Q405.40-29.93 404.98-27.42L404.98-27.42L404.98-27.42Q404.56-24.92 404.56-22.98L404.56-22.98L404.56-22.98Q404.56-16.04 406.38-12.81L406.38-12.81L406.38-12.81Q408.21-9.58 411.46-9.58L411.46-9.58L411.46-9.58Q412.78-9.58 414.40-10.33L414.40-10.33L414.40-10.33Q416.03-11.07 417.70-12.39L417.70-12.39ZM517.41-1.41L506.60 1.58L506.60 1.58Q506.12 1.71 505.33 2.00L505.33 2.00L505.33 2.00Q504.54 2.29 503.79 2.29L503.79 2.29L503.79 2.29Q503.17 2.29 502.71 1.98L502.71 1.98L502.71 1.98Q502.25 1.67 502.25 0.92L502.25 0.92L502.25 0.66L502.25 0.66Q502.56-2.55 502.78-4.55L502.78-4.55L502.78-4.55Q503.00-6.55 503.13-7.78L503.13-7.78L503.13-7.78Q503.26-9.01 503.35-9.65L503.35-9.65L503.35-9.65Q503.44-10.28 503.53-10.83L503.53-10.83L503.53-10.83Q503.61-11.38 503.68-12.04L503.68-12.04L503.68-12.04Q503.75-12.70 503.88-13.91L503.88-13.91L503.88-13.91Q504.01-15.12 504.21-17.12L504.21-17.12L504.21-17.12Q504.40-19.12 504.71-22.37L504.71-22.37L504.71-22.37Q504.89-24.13 505.09-25.86L505.09-25.86L505.09-25.86Q505.28-27.60 505.28-29.05L505.28-29.05L505.28-29.05Q505.28-30.89 505.09-32.41L505.09-32.41L505.09-32.41Q504.89-33.93 504.38-35.00L504.38-35.00L504.38-35.00Q503.88-36.08 503.00-36.69L503.00-36.69L503.00-36.69Q502.12-37.31 500.76-37.31L500.76-37.31L500.76-37.31Q499.92-37.31 498.58-36.96L498.58-36.96L498.58-36.96Q497.24-36.61 495.88-35.71L495.88-35.71L495.88-35.71Q494.52-34.80 493.42-33.33L493.42-33.33L493.42-33.33Q492.32-31.86 492.01-29.62L492.01-29.62L492.01-29.44L492.01-29.44Q491.48-24.43 491.07-20.76L491.07-20.76L491.07-20.76Q490.65-17.09 490.34-14.46L490.34-14.46L490.34-14.46Q490.03-11.82 489.84-10.06L489.84-10.06L489.84-10.06Q489.64-8.31 489.51-7.10L489.51-7.10L489.51-7.10Q489.38-5.89 489.31-5.10L489.31-5.10L489.31-5.10Q489.24-4.31 489.24-3.60L489.24-3.60L489.24-3.60Q489.24-3.25 489.27-3.01L489.27-3.01L489.27-3.01Q489.29-2.77 489.29-2.59L489.29-2.59L489.29-2.59Q489.29-2.24 488.96-2.00L488.96-2.00L488.96-2.00Q488.63-1.76 487.49-1.41L487.49-1.41L477.16 1.58L477.16 1.58Q476.67 1.71 475.88 2.00L475.88 2.00L475.88 2.00Q475.09 2.29 474.35 2.29L474.35 2.29L474.35 2.29Q473.73 2.29 473.27 1.98L473.27 1.98L473.27 1.98Q472.81 1.67 472.81 0.92L472.81 0.92L472.81 0.66L472.81 0.66Q473.12-2.55 473.31-4.55L473.31-4.55L473.31-4.55Q473.51-6.55 473.66-7.78L473.66-7.78L473.66-7.78Q473.82-9.01 473.91-9.65L473.91-9.65L473.91-9.65Q473.99-10.28 474.06-10.83L474.06-10.83L474.06-10.83Q474.13-11.38 474.21-12.04L474.21-12.04L474.21-12.04Q474.30-12.70 474.41-13.91L474.41-13.91L474.41-13.91Q474.52-15.12 474.72-17.12L474.72-17.12L474.72-17.12Q474.92-19.12 475.22-22.37L475.22-22.37L475.22-22.37Q475.40-24.13 475.60-25.86L475.60-25.86L475.60-25.86Q475.80-27.60 475.80-29.05L475.80-29.05L475.80-29.05Q475.80-30.89 475.62-32.41L475.62-32.41L475.62-32.41Q475.44-33.93 474.98-35.00L474.98-35.00L474.98-35.00Q474.52-36.08 473.73-36.69L473.73-36.69L473.73-36.69Q472.94-37.31 471.71-37.31L471.71-37.31L471.71-37.31Q470.83-37.31 469.31-36.87L469.31-36.87L469.31-36.87Q467.80-36.43 466.28-35.42L466.28-35.42L466.28-35.42Q464.77-34.41 463.60-32.76L463.60-32.76L463.60-32.76Q462.44-31.11 462.26-28.70L462.26-28.70L462.26-28.70Q461.91-25.44 461.69-23.36L461.69-23.36L461.69-23.36Q461.47-21.27 461.34-19.93L461.34-19.93L461.34-19.93Q461.21-18.59 461.14-17.78L461.14-17.78L461.14-17.78Q461.07-16.96 461.03-16.26L461.03-16.26L461.03-16.26Q460.99-16.08 460.90-15.27L460.90-15.27L460.90-15.27Q460.81-14.46 460.70-13.34L460.70-13.34L460.70-13.34Q460.59-12.22 460.48-10.92L460.48-10.92L460.48-10.92Q460.37-9.62 460.28-8.50L460.28-8.50L460.28-8.50Q460.20-7.38 460.13-6.57L460.13-6.57L460.13-6.57Q460.06-5.76 460.06-5.58L460.06-5.58L460.06-4.79L460.06-4.79Q460.06-4.35 460.02-4.04L460.02-4.04L460.02-4.04Q459.98-3.74 459.76-3.47L459.76-3.47L459.76-3.47Q459.54-3.21 459.12-2.99L459.12-2.99L459.12-2.99Q458.70-2.77 457.95-2.50L457.95-2.50L446.44 1.58L446.44 1.58Q445.96 1.76 445.17 2.02L445.17 2.02L445.17 2.02Q444.38 2.29 443.63 2.29L443.63 2.29L443.63 2.29Q443.01 2.29 442.55 1.98L442.55 1.98L442.55 1.98Q442.09 1.67 442.09 0.92L442.09 0.92L446.04-43.90L446.04-43.90Q446.18-45.35 446.37-45.90L446.37-45.90L446.37-45.90Q446.57-46.45 447.36-46.63L447.36-46.63L447.36-46.63Q451.36-47.42 455.54-48.23L455.54-48.23L455.54-48.23Q459.71-49.04 463.71-50.32L463.71-50.32L463.71-50.32Q464.06-50.32 464.13-50.21L464.13-50.21L464.13-50.21Q464.19-50.10 464.19-49.88L464.19-49.88L463.62-43.46L463.62-43.46Q465.25-44.30 467.27-45.29L467.27-45.29L467.27-45.29Q469.29-46.27 471.51-47.11L471.51-47.11L471.51-47.11Q473.73-47.94 476.04-48.49L476.04-48.49L476.04-48.49Q478.34-49.04 480.54-49.04L480.54-49.04L480.54-49.04Q483.57-49.04 486.15-47.66L486.15-47.66L486.15-47.66Q488.72-46.27 490.39-43.07L490.39-43.07L490.39-43.07Q492.36-44.34 494.58-45.44L494.58-45.44L494.58-45.44Q496.80-46.54 499.11-47.33L499.11-47.33L499.11-47.33Q501.42-48.12 503.75-48.56L503.75-48.56L503.75-48.56Q506.07-49.00 508.27-49.00L508.27-49.00L508.27-49.00Q511.04-49.00 513.50-48.21L513.50-48.21L513.50-48.21Q515.96-47.42 517.79-45.62L517.79-45.62L517.79-45.62Q519.61-43.81 520.66-40.94L520.66-40.94L520.66-40.94Q521.72-38.06 521.72-33.93L521.72-33.93L521.72-33.93Q521.72-32.87 521.67-31.75L521.67-31.75L521.67-31.75Q521.63-30.63 521.50-29.44L521.50-29.44L519.48-10.63L519.48-10.63Q519.26-8.79 519.21-7.23L519.21-7.23L519.21-7.23Q519.17-5.67 519.17-3.60L519.17-3.60L519.17-3.60Q519.17-3.25 519.19-3.01L519.19-3.01L519.19-3.01Q519.21-2.77 519.21-2.59L519.21-2.59L519.21-2.59Q519.21-2.20 518.88-1.98L518.88-1.98L518.88-1.98Q518.55-1.76 517.41-1.41L517.41-1.41Z" fill="url(#editing-glowing-gradient)"></path></g></g><style>text {
  font-size: 64px;
  font-family: Arial Black;
  dominant-baseline: central;
  text-anchor: middle;
}</style></svg>